<svg width="1000" height="1000" viewBox="0 0 1000 1000" fill="none" xmlns="http://www.w3.org/2000/svg">
<g clipPath="url(#clip0_1_2)">
<path d="M910.574 179.758H70.6949C64.6526 179.758 58.0061 180.363 51.9638 181.571C45.9215 182.779 39.8792 184.592 33.8369 187.613C28.3988 190.03 22.9607 194.26 18.7311 198.489C14.5015 202.719 10.2719 208.157 7.855 213.595C4.83385 219.033 3.02116 225.076 1.8127 231.722C0.604245 237.764 0.604245 244.411 1.52588e-05 250.453V748.943C1.52588e-05 754.985 0.604245 761.631 1.8127 767.674C3.02116 773.716 4.83385 779.758 7.855 785.801C10.8761 791.239 14.5015 796.677 18.7311 800.906C22.9607 805.136 28.3988 809.366 33.8369 811.782C39.2749 814.804 45.3172 816.616 51.9638 817.825C58.0061 819.033 64.6526 819.033 70.6949 819.637H929.305C935.347 819.637 941.994 819.033 948.036 817.825C954.079 816.616 960.121 814.804 966.163 811.782C971.601 808.761 977.039 805.136 981.269 800.906C985.498 796.677 989.728 791.239 992.145 785.801C995.166 780.363 996.979 774.32 998.187 767.674C999.396 761.631 999.396 754.985 1000 748.943V740.483V269.184V258.912V250.453C1000 244.411 999.396 237.764 998.187 231.722C996.979 225.68 995.166 219.637 992.145 213.595C989.124 208.157 985.498 202.719 981.269 198.489C977.039 194.26 971.601 190.03 966.163 187.613C960.725 184.592 954.683 182.779 948.036 181.571C941.994 180.363 935.347 180.363 929.305 179.758H910.574Z" fill="white"/>
<path d="M910.574 200.906H929.305C934.139 200.906 939.577 201.511 945.015 202.115C949.849 202.719 953.474 203.928 957.1 205.74C960.725 207.553 963.746 209.97 966.767 212.991C969.789 216.012 972.205 219.033 974.018 222.659C975.831 226.284 977.039 229.909 977.644 234.743C978.852 240.181 978.852 245.619 978.852 250.453V748.943C978.852 753.776 978.248 759.215 977.644 764.653C977.039 768.882 975.831 773.112 974.018 776.737C972.205 780.363 969.789 783.384 966.767 786.405C963.746 789.426 960.725 791.843 957.1 793.656C953.474 795.468 949.849 796.677 945.015 797.281C939.577 798.489 934.139 798.489 929.305 798.489H70.6949C66.4653 798.489 60.423 797.885 54.9849 797.281C50.7553 796.677 46.5257 795.468 42.9003 793.051C39.2749 791.239 36.2538 788.822 33.2326 785.801C30.2115 782.779 27.7946 779.758 25.9819 776.133C24.1692 772.508 22.9607 768.882 22.3565 764.048C21.148 758.61 21.148 753.172 21.148 748.338V258.912V250.453C21.148 245.619 21.7523 240.181 22.3565 234.743C22.9607 230.514 24.1692 226.284 25.9819 222.659C27.7946 219.033 30.2115 216.012 33.2326 212.991C36.2538 209.97 39.2749 207.553 42.9003 205.74C46.5257 203.928 50.1511 202.719 54.9849 202.115C60.423 200.906 65.861 200.906 70.6949 200.906H910.574Z" fill="black"/>
<path d="M273.112 394.864C281.571 383.988 287.613 369.486 285.801 354.985C273.112 355.589 258.006 363.444 248.943 373.716C241.088 382.779 233.837 397.885 235.65 411.782C250.151 413.595 264.048 405.74 273.112 394.864ZM285.801 415.408C265.257 414.199 247.734 426.888 238.066 426.888C228.399 426.888 213.293 416.012 196.979 416.012C175.831 416.616 156.495 428.097 145.619 447.432C123.867 485.498 139.577 541.692 161.329 572.508C171.601 587.613 184.29 604.532 200.604 603.927C216.314 603.323 222.357 593.656 241.088 593.656C259.819 593.656 265.257 603.927 282.175 603.323C299.094 602.719 309.97 588.218 320.242 572.508C332.326 554.985 337.16 538.066 337.16 537.462C336.556 536.858 303.927 524.773 303.927 487.311C303.323 455.891 329.305 440.785 330.514 440.181C316.616 418.429 293.656 416.012 285.801 415.408Z" fill="white"/>
<path d="M463.444 372.508C508.157 372.508 538.973 403.323 538.973 447.432C538.973 492.145 507.553 522.961 462.236 522.961H413.293V600.906H377.643V372.508H463.444ZM413.293 493.353H453.776C484.592 493.353 502.115 476.435 502.115 448.036C502.115 419.033 484.592 402.719 453.776 402.719H412.689V493.353H413.293ZM548.036 554.381C548.036 525.378 570.393 507.251 610.272 504.834L656.193 502.417V489.728C656.193 470.997 643.505 460.121 622.961 460.121C603.021 460.121 590.937 469.789 587.915 484.29H555.287C557.1 454.079 583.082 431.722 624.169 431.722C664.653 431.722 690.634 452.87 690.634 486.707V601.511H658.006V574.32H657.402C647.734 593.051 626.586 604.532 604.834 604.532C570.997 604.532 548.036 583.988 548.036 554.381ZM656.193 539.275V525.982L615.106 528.399C594.562 529.607 583.082 538.671 583.082 553.172C583.082 567.674 595.166 577.341 613.293 577.341C637.462 577.341 656.193 561.027 656.193 539.275ZM720.846 663.142V635.347C723.263 635.952 729.305 635.952 731.722 635.952C747.432 635.952 755.891 629.305 761.329 612.387C761.329 611.782 764.35 602.115 764.35 602.115L703.927 435.347H740.785L783.082 571.299H783.686L825.982 435.347H862.236L800 611.178C785.498 651.662 769.184 664.35 734.743 664.35C732.326 663.746 723.867 663.746 720.846 663.142Z" fill="white"/>
</g>
<defs>
<clipPath id="clip0_1_2">
<rect width="1000" height="1000" fill="white"/>
</clipPath>
</defs>
</svg>
